<svg width="15" height="16" viewBox="0 0 15 16" fill="none" xmlns="http://www.w3.org/2000/svg">
    <path d="M10 13.5V12.1667C10 11.4594 9.76295 10.7811 9.34099 10.281C8.91903 9.78095 8.34674 9.5 7.75 9.5H3.25C2.65326 9.5 2.08097 9.78095 1.65901 10.281C1.23705 10.7811 1 11.4594 1 12.1667V13.5" stroke="#2D2C2D" stroke-linecap="round" stroke-linejoin="round"/>
    <path d="M5.24609 7.44141C6.62681 7.44141 7.74609 6.32212 7.74609 4.94141C7.74609 3.56069 6.62681 2.44141 5.24609 2.44141C3.86538 2.44141 2.74609 3.56069 2.74609 4.94141C2.74609 6.32212 3.86538 7.44141 5.24609 7.44141Z" stroke="#2D2C2D" stroke-linecap="round" stroke-linejoin="round"/>
    <path d="M13.9961 13.6922V12.4422C13.9957 11.8883 13.8113 11.3502 13.4719 10.9124C13.1326 10.4746 12.6574 10.1619 12.1211 10.0234" stroke="#2D2C2D" stroke-linecap="round" stroke-linejoin="round"/>
    <path d="M9.62109 2.52344C10.1589 2.66113 10.6355 2.97388 10.9759 3.41238C11.3162 3.85089 11.501 4.39021 11.501 4.94531C11.501 5.50042 11.3162 6.03974 10.9759 6.47824C10.6355 6.91675 10.1589 7.2295 9.62109 7.36719" stroke="#2D2C2D" stroke-linecap="round" stroke-linejoin="round"/>
</svg>
